<svg xmlns="http://www.w3.org/2000/svg" width="13.124" height="16" viewBox="0 0 13.124 16"><defs><style>.a{fill:#fff;}</style></defs><path class="a" d="M4.351,12.314C1.97,12.3,0,7.439,0,4.964,0,.92,3.034.034,4.2.034a4.836,4.836,0,0,1,1.586.39,3.545,3.545,0,0,0,.905.26,2.818,2.818,0,0,0,.65-.211A5.206,5.206,0,0,1,9.3,0h0a4.013,4.013,0,0,1,3.358,1.7l.245.368-.352.266a2.966,2.966,0,0,0-1.422,2.446,2.761,2.761,0,0,0,1.54,2.552c.221.133.449.27.449.569,0,.2-1.56,4.393-3.826,4.393a3.077,3.077,0,0,1-1.292-.314,2.62,2.62,0,0,0-1.15-.277,2.958,2.958,0,0,0-.91.246,4.46,4.46,0,0,1-1.579.368Z" transform="translate(0 3.686)"/><path class="a" d="M3.006,0A3.152,3.152,0,0,1,.024,3.511,3.39,3.39,0,0,1,3.006,0Z" transform="translate(6.535)"/></svg>