<svg xmlns="http://www.w3.org/2000/svg" width="236.064" height="150.139" viewBox="0 0 236.064 150.139"><defs><style>.a{fill:#fff;}</style></defs><path class="a" d="M197.764,6.469,186.236,17.736s34.6,35.589,34.6,68.116c0,32.6-21.108,54.93-46.872,54.93-26.322,0-46.872-20.086-46.872-45.812,0-12.978,6.141-25.665,6.141-25.665l-13.742-6.716a1.791,1.791,0,0,0-.251-.238h-.487a1.759,1.759,0,0,0-.243.238L104.514,69.3S110.9,82.889,110.9,94.97c0,25.727-20.55,45.812-46.872,45.812-25.764,0-46.872-22.457-46.872-54.209,0-32.527,34.6-68.116,34.6-68.116L40.233,7.183S.97,43.885.97,86.573c0,38.889,27.57,70.035,63.064,70.035A63.04,63.04,0,0,0,119,125.194a63.039,63.039,0,0,0,54.968,31.414c35.494,0,63.064-31.176,63.064-70.748,0-42.7-39.263-79.39-39.263-79.39Z" transform="translate(-0.97 -6.469)"/></svg>