<svg xmlns="http://www.w3.org/2000/svg" width="78.64" height="50.016" viewBox="0 0 78.64 50.016"><path d="M66.528,6.469l-3.84,3.753S74.213,22.078,74.213,32.914c0,10.859-7.032,18.3-15.614,18.3A15.261,15.261,0,0,1,42.984,35.951,22.555,22.555,0,0,1,45.03,27.4l-4.578-2.237a.6.6,0,0,0-.084-.079h-.162a.586.586,0,0,0-.081.079L35.464,27.4a23.918,23.918,0,0,1,2.127,8.55A15.261,15.261,0,0,1,21.976,51.213c-8.583,0-15.614-7.481-15.614-18.058,0-10.836,11.526-22.691,11.526-22.691L14.05,6.707S.97,18.933.97,33.154c0,12.955,9.185,23.331,21.009,23.331A21,21,0,0,0,40.29,46.02,21,21,0,0,0,58.6,56.485c11.824,0,21.009-10.386,21.009-23.568,0-14.223-13.08-26.447-13.08-26.447Z" transform="translate(-0.97 -6.469)"/></svg>