<svg xmlns="http://www.w3.org/2000/svg" width="97.124" height="253.064" viewBox="0 0 97.124 253.064"><defs><style>.a{fill:none;stroke:#df6951;}</style></defs><path class="a" d="M88.042,13.234C81.015,4.718,63.247-8.376,48.391,7.379S53.577,52.623,65.456,65.4c5.856,3.549,18.069,9.581,20.077,5.323,2.51-5.323,4.015-16.5-16.563-26.082C55.752,38.961,27.21,32.929,18.778,54.22,14.93,63.446,14.26,84.879,42.368,96.8L77.5,112.238m0,0c13.384.536,32.624-5.845,2.51-35.662C70.475,71.962,47.387,62.63,31.325,62.2c-9.2,1.952-26.9,11.6-24.092,34.6-.335,4.613,5.923,16.075,33.628,25.017,6.358,1.419,20.578,4.365,26.6,4.79L89.046,129.8Zm0,0c-8.782-2.484-29.51-6.707-42.161-3.726-15.813,3.726-22.084.532-34.632,21.291-2.175,10.646-.6,32.469,23.088,34.6s38.982-1.952,43.667-4.258V140.448m0,0c-17.232,1.6-54.207.426-64.245-17.033C-1.634,111-2,85.624,35.341,83.495c9.034.355,28.308,1.49,33.126,3.194l-1,37.792c-17.567,1.6-54.508,9.155-61.735,26.614C1.88,161.207.608,182.5,26.306,186.756c9.536.355,31.119-.958,41.157-9.049m0-37.259v37.259m0-37.259c-10.875,2.661-34.833,10.007-43.667,18.1-10.708,8.871-26.4,30.872-3.513,47.9,7.194,2.661,26.3,4.79,45.172-7.984m2.008-20.759-2.008,20.759m2.008-20.759c-12.046,8.516-36.64,29.169-38.647,43.647-.837,8.871,1.405,27.359,17.065,30.34,4.015.71,13.953.639,21.582-5.323l-2.008-47.9" transform="translate(0.597 0.536)"/></svg>