<svg xmlns="http://www.w3.org/2000/svg" xmlns:xlink="http://www.w3.org/1999/xlink" width="70" height="70" viewBox="0 0 70 70"><defs><style>.a{fill:url(#a);}.b{fill:#fff;}.c{fill:url(#b);}</style><linearGradient id="a" x1="0.709" y1="0.028" x2="0" y2="1" gradientUnits="objectBoundingBox"><stop offset="0" stop-color="#6059b8"/><stop offset="1" stop-color="#5e3be1"/></linearGradient><linearGradient id="b" x1="0.709" y1="0.028" x2="0" y2="1" gradientUnits="objectBoundingBox"><stop offset="0" stop-color="#747def"/><stop offset="1" stop-color="#5e3be1"/></linearGradient></defs><path class="a" d="M35,0A35,35,0,1,1,0,35,35,35,0,0,1,35,0Z"/><g transform="translate(15 11.136)"><path class="b" d="M34.769,15A3.3,3.3,0,0,1,32.7,18.1L4.646,29.741a3.357,3.357,0,0,1-4.54-3.931l2.5-9.792L2.862,15,2.6,13.981.106,4.189A3.357,3.357,0,0,1,4.646.259L32.7,11.9A3.3,3.3,0,0,1,34.769,15Z" transform="translate(0 17.384) rotate(-30)"/><path class="b" d="M2.6,1.019l-2.5,9.792a3.357,3.357,0,0,0,4.54,3.931L32.7,3.1A3.3,3.3,0,0,0,34.769,0H2.862Z" transform="translate(7.5 30.375) rotate(-30)"/><path class="c" d="M13.243,1.019a1.019,1.019,0,0,1-1.019,1.019H0L.259,1.019,0,0H12.224A1.019,1.019,0,0,1,13.243,1.019Z" transform="translate(9.245 28.191) rotate(-30)"/><path class="c" d="M0,1.019H12.224A1.019,1.019,0,0,0,13.243,0H.259Z" transform="translate(9.754 29.073) rotate(-30)"/></g></svg>