<svg xmlns="http://www.w3.org/2000/svg" width="44" height="64.706" viewBox="0 0 44 64.706"><path d="M30,0C19.819,0,11.882,10.045,11.882,22a25.018,25.018,0,0,0,2.993,12.011,1.294,1.294,0,0,0-.405.93v1.294H11.882A3.9,3.9,0,0,0,8,40.118a3.769,3.769,0,0,0,.082.769c0,.01-.005.03,0,.04.03.132.08.278.12.405a3.037,3.037,0,0,0,.122.282,3.109,3.109,0,0,0,.2.405,4.046,4.046,0,0,0,.525.767.312.312,0,0,0,.041.041l.04.04a4.107,4.107,0,0,0,.405.324,3.785,3.785,0,0,0,.525.324,4.193,4.193,0,0,0,.4.2c.04.016.082.026.122.041V44A14.262,14.262,0,0,0,19.04,56.981a5.659,5.659,0,0,0-.485.607,10.489,10.489,0,0,0-1.5,5.824,1.3,1.3,0,0,0,1.294,1.294H41.647a1.3,1.3,0,0,0,1.294-1.294,10.478,10.478,0,0,0-1.5-5.824,5.659,5.659,0,0,0-.485-.607A14.261,14.261,0,0,0,49.412,44v-.243c.04-.014.082-.025.122-.039a3.368,3.368,0,0,0,.4-.2,3.96,3.96,0,0,0,.527-.324,3.51,3.51,0,0,0,.444-.364l.041-.041a4.052,4.052,0,0,0,.525-.767,6.874,6.874,0,0,0,.324-.687,3.847,3.847,0,0,0,.2-1.214,3.9,3.9,0,0,0-3.882-3.882H45.529V34.941a1.294,1.294,0,0,0-.405-.93A24.989,24.989,0,0,0,48.118,22C48.118,10.045,40.181,0,30,0Zm0,2.588c8.457,0,15.529,8.593,15.529,19.412a22.424,22.424,0,0,1-3.2,11.647h-2.1a1.289,1.289,0,0,0-1.172,1.294v1.294H20.941V34.941a1.3,1.3,0,0,0-1.294-1.294H17.666A22.412,22.412,0,0,1,14.471,22C14.471,11.181,21.543,2.588,30,2.588Zm0,33.647a9.3,9.3,0,0,0,7.481-4.328A17.367,17.367,0,0,0,40.353,22a17.367,17.367,0,0,0-2.872-9.908A9.293,9.293,0,0,0,30,7.765a9.3,9.3,0,0,0-7.481,4.328A17.367,17.367,0,0,0,19.647,22a17.367,17.367,0,0,0,2.872,9.908A9.293,9.293,0,0,0,30,36.235Zm0-25.882c2,0,3.877,1.148,5.338,3.235A14.876,14.876,0,0,1,37.765,22a14.876,14.876,0,0,1-2.426,8.412C33.877,32.5,32,33.647,30,33.647s-3.877-1.148-5.338-3.235A14.875,14.875,0,0,1,22.235,22a14.875,14.875,0,0,1,2.426-8.412C26.123,11.5,28,10.353,30,10.353ZM11.882,38.824H48.118a1.294,1.294,0,0,1,0,2.588H11.882a1.29,1.29,0,0,1-1.294-1.294,1.221,1.221,0,0,1,.122-.485A1.282,1.282,0,0,1,11.882,38.824ZM13.176,44H46.824A11.676,11.676,0,0,1,35.176,55.647H24.824A11.676,11.676,0,0,1,13.176,44Zm8.25,14.235H38.574c.085.052.263.122.687.769a7.758,7.758,0,0,1,.93,3.114H19.809A7.765,7.765,0,0,1,20.739,59C21.164,58.357,21.341,58.286,21.426,58.235Z" transform="translate(-8)"/></svg>