<svg xmlns="http://www.w3.org/2000/svg" width="62" height="62.119" viewBox="0 0 62 62.119"><path d="M29.78,1a7.649,7.649,0,0,0-5.772,2.785A6.169,6.169,0,0,0,22.514,3.5a7.038,7.038,0,0,0-6.781,5.53,6.839,6.839,0,0,0-2.7-.605,7.1,7.1,0,0,0-7.064,7.1,4.728,4.728,0,0,0,.081.606,6.917,6.917,0,0,0,.969,13.482,8.03,8.03,0,0,0-.969,3.148A6.986,6.986,0,0,0,1,39.427a7.1,7.1,0,0,0,7.064,7.1,5.257,5.257,0,0,0,.646-.081,6.975,6.975,0,0,0,6.579,4.924,6.865,6.865,0,0,0,5.288-2.664,7.993,7.993,0,0,0,1.816.283,9.082,9.082,0,0,0,3.875-.888,29.1,29.1,0,0,1,.565,5.853c0,1.771-.515,2.487-1.251,3.027a7,7,0,0,1-3.108,1.009,18.34,18.34,0,0,0-3.673.565,2.689,2.689,0,0,0-1.615,1.332,2.877,2.877,0,0,0,.081,2.3,1.292,1.292,0,1,0,2.381-.969.607.607,0,0,1-.04-.2c.02-.01.01.01.04,0a27.141,27.141,0,0,1,3.148-.484,9.033,9.033,0,0,0,4.319-1.453,6.153,6.153,0,0,0,2.3-5.126,34.071,34.071,0,0,0-.525-5.772c.106.01.217.04.323.04a7.172,7.172,0,0,0,3.754-1.171A5.861,5.861,0,0,0,36.2,48.549c-.04.616-.056.984-.121,2.1-.1,1.781-.222,3.7-.2,4.642a6.33,6.33,0,0,0,1.776,4.723,6.328,6.328,0,0,0,3.593,1.453c1.145.141,2.169.136,2.7.242a.6.6,0,0,1,.242.081,1.292,1.292,0,1,0,2.583-.081,2.571,2.571,0,0,0-.767-1.857,3.1,3.1,0,0,0-1.534-.686c-1-.2-1.993-.167-2.906-.283a3.965,3.965,0,0,1-2.18-.767c-.49-.449-.893-1.216-.928-2.906-.015-.631.061-2.634.161-4.4.086-1.468.167-2.376.2-2.785a6.479,6.479,0,0,0,2.139-1.776,8.609,8.609,0,0,0,2.422.484A8.611,8.611,0,0,0,47.7,45.522h.04A6.936,6.936,0,0,0,53.6,48.994a7.1,7.1,0,0,0,7.064-7.1,6.964,6.964,0,0,0-2.5-5.167A7.082,7.082,0,0,0,63,30.063a6.988,6.988,0,0,0-5.368-6.741,6.977,6.977,0,0,0-4.884-4.965,6.729,6.729,0,0,0,.686-2.785,7.1,7.1,0,0,0-7.064-7.1,6.872,6.872,0,0,0-3.512,1.049,6.943,6.943,0,0,0-6.014-3.633A7.676,7.676,0,0,0,29.78,1Zm0,2.583a5.164,5.164,0,0,1,5.005,4,1.29,1.29,0,0,0,1.413.969c.3-.04.52-.081.646-.081a4.468,4.468,0,0,1,4.279,3.27,1.29,1.29,0,0,0,2.139.565,4.429,4.429,0,0,1,3.108-1.251,4.493,4.493,0,0,1,3.391,7.427,1.294,1.294,0,0,0,1.009,2.139.811.811,0,0,0,.161-.04,4.439,4.439,0,0,1,4.4,3.915,1.3,1.3,0,0,0,1.13,1.13,4.449,4.449,0,0,1,3.956,4.44A4.517,4.517,0,0,1,56.7,34.543a1.291,1.291,0,0,0-1.09,1.211,7.953,7.953,0,0,1-.121,1.049,1.289,1.289,0,0,0,.565,1.332A4.514,4.514,0,0,1,53.6,46.41a4.457,4.457,0,0,1-4.077-2.664,1.3,1.3,0,0,0-1.211-.767c-.3.005-.373,0-.2,0-.025,0-.177-.015-.525-.04a1.267,1.267,0,0,0-.807.2,6.076,6.076,0,0,1-3.391,1.009A6.343,6.343,0,0,1,41,43.706a1.288,1.288,0,0,0-1.615.565A3.171,3.171,0,0,1,36.6,46.007a3.238,3.238,0,0,1-2.543-1.292,1.292,1.292,0,0,0-1.816-.2,4.771,4.771,0,0,1-3.027,1.13,4.634,4.634,0,0,1-1.9-.444,1.3,1.3,0,0,0-1.251.121,6.74,6.74,0,0,1-3.673,1.09,6.623,6.623,0,0,1-1.857-.323,1.292,1.292,0,0,0-1.453.565,4.459,4.459,0,0,1-8.234-1.776,1.31,1.31,0,0,0-.56-.913,1.3,1.3,0,0,0-1.055-.177,4.269,4.269,0,0,1-1.171.161,4.506,4.506,0,0,1-.646-8.961,1.288,1.288,0,0,0,1.09-1.332c-.005-.071-.035-.086-.04-.121,0-.071-.01-.1,0-.081a5.6,5.6,0,0,1,1.857-4.077,1.292,1.292,0,0,0-1.13-2.22,4.408,4.408,0,0,1-1.009.121,4.517,4.517,0,0,1-4.521-4.521,4.457,4.457,0,0,1,3.956-4.44,1.31,1.31,0,0,0,.913-.56A1.3,1.3,0,0,0,8.71,16.7a4.528,4.528,0,0,1-.161-1.171,4.482,4.482,0,0,1,4.48-4.521,4.348,4.348,0,0,1,2.906,1.09,1.292,1.292,0,0,0,2.139-1.09c-.025-.262-.04-.4-.04-.4a4.482,4.482,0,0,1,4.481-4.521,4.269,4.269,0,0,1,1.453.283,1.29,1.29,0,0,0,1.493-.484A5.2,5.2,0,0,1,29.78,3.583Z" transform="translate(-1 -1)"/></svg>