<svg xmlns="http://www.w3.org/2000/svg" width="45.788" height="45.627" viewBox="0 0 45.788 45.627"><path d="M45.063,2.438a2.95,2.95,0,0,0-2.97,2.187L40.72,9.969l-3.75,5.406L31,16.719a4.961,4.961,0,0,0-2.625,1.531L24.25,22.844a5.1,5.1,0,0,0-1.125,2.062l-1.406,5.313a2.7,2.7,0,0,0,5.187,1.469l1.407-4.657,2.218-2.218a8.022,8.022,0,0,1,0,1.625,18.711,18.711,0,0,1-.687,2.468l-3.875,7.469a5.111,5.111,0,0,0-.469,1.281l-1.406,6.782A3.016,3.016,0,0,0,27,48.062h.313a3.024,3.024,0,0,0,2.937-2.406l1.313-6.468,3.343-6,2.719,3.53.969,8.688a2.987,2.987,0,0,0,5.938-.656l-.938-9.25a5.041,5.041,0,0,0-.469-1.625l-2.844-6a17.916,17.916,0,0,0,.907-7.375l4.687-7.906a1.041,1.041,0,0,0,.094-.219L47.75,6.156a2.916,2.916,0,0,0-2.094-3.625,3.129,3.129,0,0,0-.593-.094ZM19.25,2.75A2.722,2.722,0,0,0,18.156,3,2.75,2.75,0,0,0,16.75,6.5l1.75,4.438L15.656,16l-4.781.656-3-3.437.156-1.375a4.46,4.46,0,1,0,.188-1.719L8.5,7.781A2.769,2.769,0,0,0,5.906,4.719H5.688A2.75,2.75,0,0,0,2.813,7.156l-.72,6.719a3.688,3.688,0,0,0,.75,2.625l4.845,6.406-1.75,3.875a9.649,9.649,0,0,0-.813,5L6.531,45.22a3.075,3.075,0,0,0,6.125-.564l-1-12.031.125-.094,3.125,4.375-1.594,7.469A3.02,3.02,0,0,0,16.25,48a2.976,2.976,0,0,0,2.875-2.25l2.125-8.156a4,4,0,0,0-.344-2.875l-3.343-6.344,1.593-7.125,4.813-8.063a3.245,3.245,0,0,0,.25-2.874L21.844,4.469A2.712,2.712,0,0,0,19.25,2.75ZM44.781,4.438a1.051,1.051,0,0,1,.375.03.91.91,0,0,1,.657,1.157l-1.782,6.188-4.687,7.906a1,1,0,0,0-.157.656,18.142,18.142,0,0,1-.906,7.25.988.988,0,0,0,.032.781l3,6.313a3.159,3.159,0,0,1,.28,1l.938,9.25a.975.975,0,1,1-1.938.219l-1.03-9a1.017,1.017,0,0,0-.188-.5l-3.781-4.907a1,1,0,0,0-1.688.094L29.75,38.313a.918.918,0,0,0-.094.28L28.281,45.25a1,1,0,0,1-.968.813H27a.966.966,0,0,1-.969-1.188l1.438-6.813a3.129,3.129,0,0,1,.281-.78l3.938-7.594c.023-.04.042-.083.062-.125a20.906,20.906,0,0,0,.75-2.72,7.542,7.542,0,0,0-.125-4.75,1,1,0,0,0-1.594-.281L26.75,25.75a.966.966,0,0,0-.25.438L25,31.125a.7.7,0,0,1-.875.469.69.69,0,0,1-.469-.875l1.407-5.313a2.929,2.929,0,0,1,.656-1.218l4.156-4.594v-.032a2.951,2.951,0,0,1,1.563-.906l6.343-1.437a1,1,0,0,0,.625-.407l4.063-5.875a1.007,1.007,0,0,0,.156-.343l1.406-5.469a.907.907,0,0,1,.75-.688ZM19.313,4.75A.716.716,0,0,1,20,5.219l2.344,5.843a1.23,1.23,0,0,1-.094,1.094l-4.906,8.219a1,1,0,0,0-.125.281L15.5,28.281a1,1,0,0,0,.094.688l3.562,6.687a1.992,1.992,0,0,1,.157,1.438L17.188,45.25a.961.961,0,0,1-.938.75,1,1,0,0,1-1-1.219l1.719-7.875a1.006,1.006,0,0,0-.157-.781l-4-5.594a1,1,0,0,0-1.406-.219L10,31.407a1,1,0,0,0-.375.875l1.063,12.532a1.1,1.1,0,0,1-2.188.217L7.125,31.563a7.658,7.658,0,0,1,.625-3.97l2-4.405a1,1,0,0,0-.094-1L4.437,15.313a1.79,1.79,0,0,1-.343-1.25l.718-6.688a.7.7,0,0,1,.75-.656h.25a.73.73,0,0,1,.688.843l-.688,5.844a1,1,0,0,0,.25.781L9.75,18.375a1,1,0,0,0,.906.344l5.781-.813a.99.99,0,0,0,.72-.5L20.5,11.47a1,1,0,0,0,.063-.844L18.625,5.75A.713.713,0,0,1,19,4.812a.811.811,0,0,1,.313-.062ZM32.5,7A4.5,4.5,0,1,0,37,11.5,4.516,4.516,0,0,0,32.5,7Zm-20,2A2.5,2.5,0,1,1,10,11.5,2.488,2.488,0,0,1,12.5,9Zm20,0A2.5,2.5,0,1,1,30,11.5,2.488,2.488,0,0,1,32.5,9Z" transform="translate(-2.073 -2.436)"/></svg>