<svg xmlns="http://www.w3.org/2000/svg" xmlns:xlink="http://www.w3.org/1999/xlink" width="109" height="109" viewBox="0 0 109 109"><defs><style>.a{fill:#fff;}.b{clip-path:url(#a);}.c{fill:#e04f5f;}</style><clipPath id="a"><circle class="a" cx="54.5" cy="54.5" r="54.5" transform="translate(1099 1038)"/></clipPath></defs><g class="b" transform="translate(-1099 -1038)"><g transform="translate(1097.265 1036.265)"><path class="c" d="M1.735,56.235a54.5,54.5,0,1,1,54.5,54.5A54.506,54.506,0,0,1,1.735,56.235Z"/><path class="a" d="M83.914,35.828a19.569,19.569,0,0,0-27.678,0,19.569,19.569,0,0,0-27.678,0c-7.644,7.644-6.546,19.067,0,27.678,6.92,9.116,19.573,24.142,27.678,24.142S76.994,72.6,83.914,63.506C90.46,54.9,91.558,43.473,83.914,35.828Z"/></g></g></svg>