<svg xmlns="http://www.w3.org/2000/svg" width="62" height="62" viewBox="0 0 62 62"><path d="M37,6A30.978,30.978,0,1,0,47.476,7.817,30.433,30.433,0,0,0,37,6Zm0,3.207a28.289,28.289,0,0,1,9.407,1.6,3.682,3.682,0,0,1,.428.16l.107,3.9A3.689,3.689,0,0,1,44.75,18.24c-2.94,1.283-5.879.588-7.109,3.955-1.016,2.566,1.657,9.46,4.917,9.46,4.116,0,6.093-8.284,7.322-8.284.8,0,2.031,2.512,3.474,4.383a5.013,5.013,0,0,0,4.062,1.978h2.726l3.9.909A28.339,28.339,0,0,1,64.793,37,27.752,27.752,0,0,1,30.64,64.045V60.464L29.3,59.128c-1.336-1.336,1.39-3.581,2.138-6.414,2.084-8.017-4.864-8.338-5.078-10.1-.214-1.978,2.352-3.474,3.9-5.024s2.031-3.955,1.229-5.345c-2.512-4.65-8.605-2.191-9.193,2.672A14.065,14.065,0,0,1,18.721,42.4c-1.5,1.5-4.436.695-5.238-1.5-.909-2.459,2.245-3.367,1.764-6.521-.107-.855-1.016-1.283-2.138-1.443l-3.688.107A27.919,27.919,0,0,1,37,9.207ZM55.43,40.175c-1.4.076-3.365.773-6.031,2.6-2.03,1.389-5.611-1.5-7.161.641-1.5,2.084,6.36,8.445,8.979,7.216,4.436-2.084,7.322-6.414,7.322-8.017C58.573,41.643,57.772,40.048,55.43,40.175Z" transform="translate(-6 -6)"/></svg>