<svg xmlns="http://www.w3.org/2000/svg" xmlns:xlink="http://www.w3.org/1999/xlink" width="237" height="105" viewBox="0 0 237 105"><defs><style>.a{fill:#fff;}.b{fill:#080809;}.c{filter:url(#e);}.d{filter:url(#c);}.e{filter:url(#a);}</style><filter id="a" x="136" y="2" width="101" height="101" filterUnits="userSpaceOnUse"><feOffset dy="2" input="SourceAlpha"/><feGaussianBlur stdDeviation="10" result="b"/><feFlood flood-opacity="0.102"/><feComposite operator="in" in2="b"/><feComposite in="SourceGraphic"/></filter><filter id="c" x="0" y="0" width="101" height="101" filterUnits="userSpaceOnUse"><feOffset dy="2" input="SourceAlpha"/><feGaussianBlur stdDeviation="10" result="d"/><feFlood flood-opacity="0.102"/><feComposite operator="in" in2="d"/><feComposite in="SourceGraphic"/></filter><filter id="e" x="66" y="0" width="105" height="105" filterUnits="userSpaceOnUse"><feOffset dy="2" input="SourceAlpha"/><feGaussianBlur stdDeviation="10" result="f"/><feFlood flood-opacity="0.102"/><feComposite operator="in" in2="f"/><feComposite in="SourceGraphic"/></filter></defs><g transform="translate(30 28)"><g transform="translate(136 2)"><g class="e" transform="matrix(1, 0, 0, 1, -166, -30)"><path class="a" d="M20.5,41A20.5,20.5,0,1,0,0,20.5,20.5,20.5,0,0,0,20.5,41Z" transform="translate(166 30)"/></g><path class="b" d="M16,1.539a6.839,6.839,0,0,1-1.89.518A3.262,3.262,0,0,0,15.553.244a6.555,6.555,0,0,1-2.08.794A3.28,3.28,0,0,0,7.8,3.281a3.378,3.378,0,0,0,.076.748A9.284,9.284,0,0,1,1.114.6,3.281,3.281,0,0,0,2.122,4.982a3.239,3.239,0,0,1-1.482-.4v.036A3.3,3.3,0,0,0,3.268,7.837a3.274,3.274,0,0,1-.86.108,2.9,2.9,0,0,1-.621-.056,3.311,3.311,0,0,0,3.065,2.285,6.591,6.591,0,0,1-4.067,1.4A6.144,6.144,0,0,1,0,11.528,9.234,9.234,0,0,0,5.032,13a9.272,9.272,0,0,0,9.336-9.334c0-.145-.005-.285-.012-.424A6.544,6.544,0,0,0,16,1.539Z" transform="translate(12 14)"/></g><g class="d" transform="matrix(1, 0, 0, 1, -30, -28)"><path class="a" d="M20.5,41A20.5,20.5,0,1,0,0,20.5,20.5,20.5,0,0,0,20.5,41Z" transform="translate(30 28)"/></g><path class="b" d="M5.537,2.244a3.523,3.523,0,0,0-1.024-.169c-.416,0-1.312.287-1.312.844V4.253H5.329V6.5H3.2V12.69H1.056V6.5H0V4.253H1.056V3.122C1.056,1.418,1.792,0,3.569,0A8.08,8.08,0,0,1,5.857.253Z" transform="translate(17.571 16)"/><g transform="translate(66)"><g class="c" transform="matrix(1, 0, 0, 1, -96, -28)"><path class="a" d="M22.5,45A22.5,22.5,0,1,0,0,22.5,22.5,22.5,0,0,0,22.5,45Z" transform="translate(96 28)"/></g><g transform="translate(15 14)"><path d="M13.656,0H2.344A2.347,2.347,0,0,0,0,2.344V13.656A2.346,2.346,0,0,0,2.344,16H13.656A2.346,2.346,0,0,0,16,13.656V2.344A2.346,2.346,0,0,0,13.656,0Zm1.406,13.656a1.408,1.408,0,0,1-1.406,1.406H2.344A1.408,1.408,0,0,1,.938,13.656V2.344A1.408,1.408,0,0,1,2.344.938H13.656a1.408,1.408,0,0,1,1.406,1.406Z"/><g transform="translate(12.219 1.906)"><path d="M.938,0a.938.938,0,1,0,.938.938A.939.939,0,0,0,.938,0Z"/></g><g transform="translate(3.781 3.781)"><path d="M4.219,0A4.219,4.219,0,1,0,8.438,4.219,4.223,4.223,0,0,0,4.219,0Zm0,7.5A3.281,3.281,0,1,1,7.5,4.219,3.285,3.285,0,0,1,4.219,7.5Z"/></g></g></g></g></svg>