<svg xmlns="http://www.w3.org/2000/svg" xmlns:xlink="http://www.w3.org/1999/xlink" width="1257" height="407" viewBox="0 0 1257 407"><defs><style>.a,.e{stroke:#7e7f7f;}.a{fill:url(#a);}.b{fill:#bbbbbc;opacity:0.2;}.c{opacity:0.1;}.d{clip-path:url(#c);}.e,.h{fill:none;}.f{clip-path:url(#d);}.g{stroke:none;}</style><linearGradient id="a" x1="0.709" y1="0.028" x2="0" y2="1" gradientUnits="objectBoundingBox"><stop offset="0" stop-color="#bbbbbc"/><stop offset="1" stop-color="#7e7f7f"/></linearGradient><clipPath id="c"><path class="a" d="M0,0H240a24,24,0,0,1,24,24V351.522a0,0,0,0,1,0,0H50a50,50,0,0,1-50-50V0A0,0,0,0,1,0,0Z"/></clipPath><clipPath id="d"><rect class="a" width="361" height="480" transform="translate(480 0) rotate(90)"/></clipPath></defs><path class="b" d="M20,0H1150a20,20,0,0,1,20,20V278a129,129,0,0,1-129,129H20A20,20,0,0,1,0,387V20A20,20,0,0,1,20,0Z" transform="translate(1257 407) rotate(180)"/><g class="c" transform="translate(993 0.136)"><g class="d"><g transform="translate(61.696 -17.217)"><g class="e" transform="translate(85.016 103.234)"><circle class="g" cx="92.303" cy="92.303" r="92.303"/><circle class="h" cx="92.303" cy="92.303" r="91.803"/></g><g class="e" transform="translate(66.798 82.587)"><circle class="g" cx="103.234" cy="103.234" r="103.234"/><circle class="h" cx="103.234" cy="103.234" r="102.734"/></g><g class="e" transform="translate(51.01 64.977)"><circle class="g" cx="112.95" cy="112.95" r="112.95"/><circle class="h" cx="112.95" cy="112.95" r="112.45"/></g><g class="e" transform="translate(36.435 44.937)"><circle class="g" cx="121.452" cy="121.452" r="121.452"/><circle class="h" cx="121.452" cy="121.452" r="120.952"/></g><g class="e" transform="translate(22.468 25.505)"><circle class="g" cx="129.65" cy="129.65" r="129.65"/><circle class="h" cx="129.65" cy="129.65" r="129.15"/></g><g class="e"><circle class="g" cx="142.402" cy="142.402" r="142.402"/><circle class="h" cx="142.402" cy="142.402" r="141.902"/></g></g></g></g><g class="c" transform="translate(0 46)"><g class="f"><g transform="translate(106.32 85.867)"><g class="e" transform="translate(256.225 116.253) rotate(90)"><ellipse class="g" cx="126.218" cy="126.039" rx="126.218" ry="126.039"/><ellipse class="h" cx="126.218" cy="126.039" rx="125.718" ry="125.539"/></g><g class="e" transform="translate(284.418 91.341) rotate(90)"><ellipse class="g" cx="141.165" cy="140.965" rx="141.165" ry="140.965"/><ellipse class="h" cx="141.165" cy="140.965" rx="140.665" ry="140.465"/></g><g class="e" transform="translate(308.465 69.752) rotate(90)"><ellipse class="g" cx="154.451" cy="154.232" rx="154.451" ry="154.232"/><ellipse class="h" cx="154.451" cy="154.232" rx="153.951" ry="153.732"/></g><g class="e" transform="translate(335.829 49.823) rotate(90)"><ellipse class="g" cx="166.076" cy="165.841" rx="166.076" ry="165.841"/><ellipse class="h" cx="166.076" cy="165.841" rx="165.576" ry="165.341"/></g><g class="e" transform="translate(362.364 30.724) rotate(90)"><ellipse class="g" cx="177.286" cy="177.036" rx="177.286" ry="177.036"/><ellipse class="h" cx="177.286" cy="177.036" rx="176.786" ry="176.536"/></g><g class="e" transform="translate(397.19 0) rotate(90)"><ellipse class="g" cx="194.724" cy="194.449" rx="194.724" ry="194.449"/><ellipse class="h" cx="194.724" cy="194.449" rx="194.224" ry="193.949"/></g></g></g></g></svg>